<svg height="1024pt" preserveAspectRatio="xMidYMid meet" viewBox="0 0 881 1024" width="881pt" xmlns="http://www.w3.org/2000/svg"><g transform="matrix(.1 0 0 -.1 0 1024)"><path d="m3752 9810c-93-24-117-27-134-17-16 10-22 9-38-11-11-13-47-32-82-43s-98-35-141-52c-65-26-80-29-87-17-11 18-64 5-205-51-76-31-113-52-154-91-53-49-55-53-67-127-7-42-13-99-13-127-1-53-28-116-78-182l-25-33-22 20c-35 33-85 123-100 180-15 58-40 91-56 75-10-10 4-183 21-249 10-37 55-89 108-125l22-15-49-100c-27-55-56-116-65-135-17-40-14-47-56 106-24 87-31 131-31 203 0 95-10 131-35 131-12 0-15-19-15-100 0-79-4-109-19-138-29-58-34-97-21-188 7-47 10-88 7-91-3-2-38 2-77 11-77 18-90 16-90-15 0-13 25-36 83-73 100-64 112-78 98-105-10-19-12-19-43-3-47 23-70 27-140 24-50-3-56-26-25-105 14-34 33-105 43-157 9-52 25-120 36-150 31-91 33-158 6-204-35-59-54-67-84-33-13 15-24 34-24 42 0 7-7 21-16 29-46 46-77-12-78-144 0-76 7-119 32-212 33-120 42-224 21-245-18-18-6-277 15-335 25-69 116-145 116-97 0 5-16 23-35 40-55 49-69 112-61 278 4 75 9 159 12 187 5 41-1 72-25 147-49 153-61 332-23 345 6 2 17-9 23-25 26-68 79-84 124-36 30 33 30 28 5-95-39-195-52-375-40-559 13-205 13-208 57-312 34-79 35-87 26-139-10-52-9-57 12-78 29-29 44-75 45-136 0-27 1-63 2-80 1-18-5-140-12-271-10-192-10-286 0-482 12-235 8-325-11-245-15 62-29 519-22 744 5 186 4 218-8 214-21-7-27-78-28-333-2-386 17-642 64-885 31-159 59-349 53-356-3-2-24 3-48 11-55 19-107 18-147-3-95-51-316-279-350-361-8-19-21-66-29-104-13-60-13-76 0-130 8-34 18-80 21-102 13-76 55-147 136-228 50-49 72-77 61-77-9 0-30 9-45 19-48 31-226 241-255 300-24 51-27 66-27 166s2 114 27 162c20 37 47 66 98 103 61 46 83 70 65 70-20 0-108-55-146-91-103-97-117-295-32-451 15-27 75-102 134-166 111-120 148-145 201-135 21 4 34-2 58-25l30-31-54-89c-73-120-104-230-74-260 21-21 43-13 89 31 49 47 139 163 139 179 0 15-25-7-107-92-86-90-104-88-69 11 21 60 92 179 116 194 5 3 44 8 87 11 104 6 159 34 274 138 99 91 349 353 349 366 0 23-21 14-80-35-136-113-208-166-295-216-132-77-157-89-183-89-21 0-23 2-11 16 7 9 33 30 58 47s82 65 126 107c44 41 100 91 125 110 88 67 170 143 170 156 0 27-36 13-90-37-30-27-68-59-85-70-29-20-18-9 103 104 51 48 56 72 12 62-17-4-30-2-30 3 0 11 147 153 184 177 14 10 43 40 63 69 20 28 60 76 88 106s57 66 64 78c7 13 15 22 17 19 10-10-128-207-233-333-29-35-48-66-43-69 16-10 67 22 99 62 29 35 182 247 259 358 18 26 36 45 39 42 6-6-181-301-249-394-21-29-38-57-38-63 0-23 38-7 77 33 39 39 219 319 270 417 28 55 17 73-29 47-17-10-32-16-34-14-2 1 8 22 22 44 28 48 73 64 123 43 16-6 38-9 48-6 13 4 28-3 48-24 30-31 63-38 108-21 28 11 77 57 160 154 32 37 72 74 89 83 42 22 92 12 139-26 56-44 96-39 47 7-66 61-147 80-206 49-26-13-100-88-188-189-56-66-88-65-141 2-40 51-81 83-123 96-14 4-35 17-48 28-16 15-38 22-70 23-26 1-53 3-59 3-7 1-13 13-13 27 0 29 80 403 146 679 49 205 84 403 104 585 14 129 24 158 45 140 17-14 35-5 35 17 0 9 21 55 47 104 36 66 45 91 36 100-16 16-30 4-54-43l-21-41-19 43c-19 42-20 42-39 25s-20-17-20 1c0 22 19 53 68 107 18 22 31 41 28 45-10 9-96-80-103-105-6-26-31-31-39-8-3 8-14 17-24 20s-30 23-44 44c-30 43-58 58-98 53-30-4-47-37-29-55 6-6 11-18 11-26-1-15-90 76-90 91 0 12-54 35-72 31-23-6-23-20 2-68 27-52 26-69-2-61-13 3-29 6-35 6-7 0-13 6-13 13 0 8-11 24-25 37s-25 34-25 47c0 16-6 23-20 23-15 0-20-7-20-24 0-39-17-40-42-2-28 44-44 41-41-8 1-20-2-36-7-36s-34 16-64 35c-68 43-128 64-194 67-58 3-65-4-102-80-15-31-25-42-36-38-19 7-64-40-65-68 0-20-1-20-8-2-4 11-6 159-5 330 2 287 5 327 33 511 30 206 88 457 121 533 11 23 33 54 49 68 32 27 127 166 207 303 66 114 195 241 320 316 66 40 84 44 77 15-7-25 23-38 42-19 14 16 28 138 17 155-4 7-16 13-27 15-36 7-57 104-58 264 0 77 3 157 7 178 7 31 5 37-8 37-42 0-59-159-36-350 8-73-2-160-20-160-20 0-190 242-190 271 0 23 184 223 236 256 27 18 83 47 125 67 79 35 239 90 246 83 2-2-6-26-17-53-12-27-30-94-41-149-28-138-18-216 46-340 42-81 45-93 35-119-14-39 2-56 24-24l17 23 19-25c10-14 22-22 26-18 8 9-15 68-26 68-23 0-16 38 17 96 21 35 40 64 44 64 8 0 26-45 31-75 2-12 12-21 25-23 19-3 22-13 33-90 6-48 12-93 13-101 3-23 28-25 34-2 6 25 25 27 43 6 7-8 18-15 25-15s41-9 75-20c110-35 150-26 250 59 146 124 186 141 265 117 109-34 152-18 281 100l94 86-15-42c-19-53-19-84-1-99 22-18 58-22 81-8 32 21 199 60 210 49 3-3 5-15 5-27 0-56 93-80 196-50 117 34 174 45 192 36 9-5 25-12 35-15 9-3 17-9 17-14 0-11-55-37-96-46-27-6-32-4-37 15-3 12-12 19-19 17-20-7-21-34-2-53 25-24 93-13 162 26 30 17 58 27 63 22s4-37-2-72c-5-35-8-66-5-68 12-13 36 9 36 32 0 49 23 120 47 144 23 23 24 24 56 7 19-10 71-19 127-24l95-7-56-43c-34-25-66-61-82-90-25-47-52-156-41-173 12-21 23-6 29 44 7 52 32 119 57 148 7 8 40 35 72 59 47 36 67 44 97 44 22-1 45-7 53-14 8-6 23-9 34-6 23 8 128-33 196-75 28-18 127-109 219-203l168-171 119-235c74-146 138-258 169-297 27-34 51-74 53-90 2-22 8-28 24-26 36 4 167-121 271-259 81-106 123-246 109-358-6-51-21-91-28-80-2 3-22 44-46 91-35 72-54 96-110 143-96 82-242 178-258 172-24-9-6-30 64-71 131-78 252-188 252-229 0-5-10 0-22 11-13 11-50 35-83 53-89 49-217 135-243 163-23 25-24 67-1 67 12 0 12 37-1 45-5 3-10 26-10 51s-6 57-14 72c-22 42-133 143-221 201-120 79-158 113-189 171-24 44-29 68-35 155-5 83-10 107-26 125-38 42-75 54-175 55-113 2-208 14-216 26-3 5 9 9 26 9 43 0 90 47 90 90s-37 74-113 95c-78 21-202 18-202-5 0-12 12-14 58-12 60 4 143-11 190-35 35-17 37-56 3-78-25-17-109-32-191-36-57-3-85-14-85-33 0-17 31-26 90-26 81-1 237-41 310-79 47-25 64-51 108-159 31-75 54-112 134-210 60-72 122-136 159-163 65-46 93-82 152-190l36-66-23-49c-26-54-72-94-110-94-47 0-302 239-350 329-25 46-30 70-36 158-7 116-21 145-48 104-10-14-24-34-34-45-16-20-16-20-37-2-29 26-71 100-71 125 0 21-27 41-55 41-41 0-185 161-220 245-8 19-9 19-12-2-7-36 44-120 121-200 67-69 76-84 111-177 29-80 37-114 36-165 0-35 3-69 8-75 5-7 4-39-4-81-32-163-42-192-106-293-52-82-79-160-79-228 0-78 24-94 164-113 112-16 156-39 253-133 189-183 173-321-23-208-115 66-153 84-160 77-13-13 19-37 115-87 119-63 179-74 216-40 30 28 31 51 5 109-25 54-25 63 0 79 18 11 22 8 45-38 50-98 74-275 79-570 1-102 6-193 11-203 15-36 30-10 32 59 5 122 23 264 37 292 18 34 57 70 121 110 28 17 79 61 115 97 35 36 69 65 75 65 10 0 145-163 145-175 0-2-21-13-47-25-25-11-76-44-112-73s-85-66-108-82c-23-17-51-46-62-66-22-39-66-172-77-234-4-22-15-57-26-78-21-43-21-92 1-92 8 0 23 24 34 53 20 54 51 80 80 69 7-3 24-43 36-90 21-80 42-119 54-100 7 10-42 194-55 211-6 6-28 12-49 12-22 0-39 2-39 6 0 13 52 190 62 208 18 36 50 66 143 136 169 126 184 127 231 19 49-111 65-180 71-305 9-177-22-295-152-568-34-72-70-132-104-170-29-32-78-97-111-145-32-47-75-103-96-123-56-52-143-97-225-114-69-14-89-13-89 7 0 5-9 22-20 37-23 32-50 159-50 240 0 31 5 82 12 114 9 45 9 66 0 90-9 25-9 33 3 42 21 16 45 149 45 253 0 83 2 92 20 98 24 8 24 13 5 51-8 16-21 61-30 98-9 38-24 85-34 105-16 31-17 47-10 115 21 190-40 383-144 454-24 17-49 37-56 46-15 18-41 21-41 5 0-6 9-22 19-36 22-26 38-104 26-123-5-7-24 17-49 62-66 117-129 208-143 208-23 0-14-21 48-117 65-101 84-141 105-218 17-62 18-180 2-240-21-78-3-122 118-289 36-51 37-60 14-122l-11-27-15 21c-31 45-44 17-22-46 12-32 11-35-17-59-17-14-67-42-113-63-108-51-126-94-60-141 27-19 38-21 110-14l81 7-24-39c-22-37-100-155-206-314-55-83-73-130-73-195 0-59 23-76 97-73 46 2 70-4 116-25 50-24 57-31 51-49-4-12-10-35-14-52-4-16-22-68-40-115-23-60-34-107-37-160-4-66-1-81 22-124 22-41 27-68 32-152l6-103-23 6c-19 5-22 3-17-11 4-10 7-21 7-26s9-12 21-15c19-6 27-19 43-72 7-23 6-23-84-23-100 0-147-14-193-58-35-33-67-135-67-213 0-53-2-59-20-59-29 0-76-26-94-52-11-15-16-45-16-94 0-60 5-80 33-135 23-46 38-65 55-67 29-4 28 0-7 49-43 59-56 103-43 148 6 20 13 48 16 62 5 25 40 49 71 49 8 0 21-13 29-29 22-43 63-66 92-52 13 6 24 19 24 30s9 21 22 24c34 9 5 35-50 43-26 3-53 11-59 16-32 26-1 203 43 249 45 47 82 59 188 59 91 0 96-1 112-25 9-14 24-25 33-25 10 0 24 11 31 25 8 15 22 25 35 25 40 0 49 24 20 58-29 35-32 52-7 53 13 0 12 4-8 17-94 64-139 189-90 252l19 25 46-45c45-44 45-45 26-59-19-12-31-58-13-49 4 2 24 12 45 21 20 10 37 20 37 23s-27 36-60 73-60 73-60 79c0 11 128 127 134 121 2-2 9-56 16-119 7-70 21-143 37-189 20-59 22-75 12-82-10-6-9-12 5-28 20-22 41-27 50-12 3 5-3 35-15 67-43 123-47 142-59 264-6 68-14 128-16 132s0 27 6 52c12 56 15 124 6 154-7 21-5 22 44 22 104 0 166 55 306 270 27 41 76 109 109 150 86 105 257 366 305 463 108 221 129 474 60 702-15 47-14 84 4 165 45 202 69 444 55 547-8 59-7 76 5 95 21 32 38 151 30 207-11 75-53 181-101 253-44 67-150 182-250 271-48 42-53 50-53 88 0 50 1 50 108-25 87-61 172-140 199-186 18-31 43-40 43-16 0 18-66 102-112 142-20 18-79 62-132 99-53 36-100 74-105 83-4 9-20 60-35 112-36 130-102 261-173 341-32 37-99 116-150 176-50 60-126 140-170 178-43 38-119 117-168 175-148 172-267 246-410 256-38 3-87 12-107 21-34 14-43 14-106-2l-68-18-49 28c-40 24-63 30-131 33l-83 4-27 39c-45 65-131 139-197 168-131 60-317 78-468 46-85-18-104-15-312 45-297 85-525 101-725 50zm398-21c128-15 420-85 420-101 0-4-33-17-72-29-40-11-142-51-227-87-151-64-156-67-248-155-51-49-96-87-99-84-10 9 55 137 110 218 52 75 67 109 49 109-5 0-49-40-100-88-72-67-104-107-144-177-28-49-57-97-65-105-12-12-14-10-14 20 1 97 51 227 139 362 54 81 60 98 36 98-19 0-32-14-102-113-41-58-63-103-88-180-19-56-41-120-50-142-16-37-18-38-31-20-8 11-18 35-23 55-14 52-33 269-29 320 3 40 6 45 33 51 17 4 62 17 100 28 129 38 216 42 405 20zm740-114c19-23 11-24-55-11-46 10-54 14-35 18 49 10 78 8 90-7zm238 0c60-14 158-57 203-89 27-19 109-115 109-128 0-20-105 3-200 44-107 46-150 69-150 80 0 15 55 8 88-12 39-24 52-25 52-5 0 8-15 25-32 36-29 18-45 20-125 16-86-4-93-3-93 15 0 10-14 27-32 38l-33 20h75c41 0 103-7 138-15zm-1538-181c12-117 21-148 53-182l21-23-19-56c-11-31-27-66-36-77-17-21-18-20-43 35-15 31-31 83-37 115-15 79-5 248 17 304 17 43 18 44 25 17 4-15 12-74 19-133zm1198 135c28-6 52-14 52-19 0-21-69-59-127-69-103-19-160-40-209-77-25-19-48-33-51-31-2 3 5 28 18 56 16 39 19 54 10 64-9 11-3 17 27 31 79 35 174 63 200 59 15-3 51-9 80-14zm-1700-101c-52-51-111-113-130-138-20-25-38-43-41-40s-6 36-8 75l-4 69 60 36c62 37 179 89 204 90 8 0-28-42-81-92zm1362 74c0-5-11-14-25-20-31-14-33 1-2 16 28 14 27 13 27 4zm460-2c0-13-38-32-51-25-6 4-3 12 8 21 21 16 43 18 43 4zm95-39c3-5 18-12 34-16 16-3 55-22 87-41 75-45 147-69 252-84 61-9 85-17 89-29 3-9 10-26 16-38 6-13 8-25 5-28-6-6-292-91-438-130-47-12-103-30-125-38-34-13-42-13-54-2-12 12-10 24 13 87 58 154 45 155-101 10-104-103-174-152-218-152-31 0-105 32-105 45 0 7 21 29 46 50s93 92 151 159c58 66 119 132 135 146s64 35 106 46c93 26 99 27 107 15zm-555-20c0-18-45-108-88-176-92-144-205-266-311-336-88-59-99-55-82 28 9 44 20 67 50 98 21 22 62 83 90 135 28 53 64 108 80 124 30 28 225 135 249 136 6 0 12-4 12-9zm-183-36c-15-13-34-22-41-19-14 5-51-14-88-45-9-8-24-16-33-17-15-2-15 0-2 19 22 34 125 85 172 86 18 0 17-2-8-24zm-351-106c-51-109-97-171-113-155-5 4 12 44 36 89 44 83 119 192 127 184 2-2-20-55-50-118zm824 115c0-3-45-58-99-123-94-110-196-209-268-259-39-27-83-30-83-4 0 27 86 172 128 216 50 52 150 126 171 126 9 0 23 6 29 13 7 6 34 17 60 23 61 15 62 15 62 8zm798-107c6-6 13-24 17-40 6-21 4-27-9-27-18 0-36 30-36 59 0 24 12 27 28 8zm111 2c49-17 41-29-36-53-18-6-25-1-37 23-9 17-16 32-16 36 0 9 56 6 89-6zm-1634-133c-26-58-53-111-61-117-7-6-28-12-46-12-30-2-33 1-30 23 6 52 44 108 109 164 37 30 69 54 71 52 2-3-17-52-43-110zm2058 79c92-24 175-72 249-144 37-37 68-72 68-78 0-8-27-1-69 17-39 17-77 30-86 30s-28 13-43 30c-31 33-71 44-214 55-49 4-88 9-88 10 0 2 9 24 20 49 19 45 21 46 63 46 23 0 69-7 100-15zm-193-12c0-8-9-31-21-49-15-26-33-37-72-49-28-8-53-15-55-15-4 0 6 83 14 110 6 23 134 26 134 3zm-2997-23c6-23-16-59-27-42-8 13 3 62 14 62 4 0 10-9 13-20zm2821 4c7-19-10-91-25-99-14-10-38 13-55 53-18 43-18 41 9 52 35 14 64 11 71-6zm-1971-71c2-32 3-59 2-61-10-11-35 67-30 90 10 45 22 32 28-29zm1875 8c25-43 26-51 12-51-8 0-50 70-50 85 0 17 19 0 38-34zm-48-16c12-24 19-49 16-54s-34-14-69-20-101-22-147-36c-109-33-143-32-169 1-25 32-15 58 26 68 15 3 87 24 158 45 72 22 137 40 147 40 10 1 25-17 38-44zm477-20c35-3 76-11 93-16 31-11 40-27 18-33-7-2-35-11-63-20-79-26-321-20-312 8 2 6 28 25 58 43 45 27 62 32 99 28 25-2 73-7 107-10zm-3039-110c58-63 104-121 107-137 4-15 11-28 16-28 17 0 9-17-13-27-13-6-72-53-133-105-114-98-159-155-271-347-50-85-118-171-136-171-5 0-17 7-25 16-15 14-15 25-3 97 7 45 19 97 26 115l14 34 30-25c57-48 85-45 116 15 13 25 22 81 39 242l7 58 40-41c23-23 45-41 49-41 18 0 19 22 4 65-23 70-21 79 18 72 47-7 70 8 34 22-15 6-39 14-53 17-42 11-67 52-60 101 6 46 72 186 85 181 4-2 53-52 109-113zm833 32c-15-38-31-34-31 8 0 22 6 37 18 44 21 12 28-13 13-52zm1915 37c-23-17-36-18-36-4 0 12 42 31 50 23 3-3-4-11-14-19zm-3088-86c70-109 69-140-3-77-23 21-40 48-50 82-31 103-17 102 53-5zm3012 67c0-5-12-18-26-29-31-22-50-9-30 20 15 20 56 28 56 9zm-1410-21c-13-33-13-30 12-54l22-20-35-30c-121-104-139-115-201-115-87 1-92 16-17 56 35 19 99 69 143 111 45 42 82 77 83 78 1 0-2-12-7-26zm2075-39c105-51 183-112 253-200 35-44 83-100 106-125 46-49 86-103 86-117 0-4-4-3-8 3s-28 24-53 42c-25 17-97 85-159 152-119 127-191 177-332 231-55 21-73 41-45 53 23 10 81-5 152-39zm-2400-57c-4-40-9-75-11-77-3-3-17 0-32 5-25 9-27 14-30 71-3 67-6 63 67 72 10 1 12-13 6-71zm-738 2c6-17 15-29 20-28 8 3 13-5 13-22 0-10-79-54-85-48-6 5 28 128 35 128 3 0 11-14 17-30zm630-7c-3-10-5-4-5 12 0 17 2 24 5 18 2-7 2-21 0-30zm-1018-125c15-40 22-98 13-98-17 0-39 75-33 113 2 14 12 7 20-15zm-88-195c-6-62-16-124-21-138-12-31-39-44-50-24-5 8-18 25-29 38-12 13-21 26-21 27 0 11 54 141 87 209l38 80 3-40c2-22-1-91-7-152zm-210 21c23-73 39-139 36-148-6-15-10-15-46 3-45 23-49 36-58 152-4 58-2 92 6 108 7 12 14 21 16 19 2-1 22-62 46-134zm4441-336c123-246 141-289 130-300-16-16-77 84-188 305-61 121-93 195-89 205 12 30 65-46 147-210zm-4553 189c23-11 44-57 26-57-14 0-115 65-115 74 0 10 52 1 89-17zm4586-130c19-39 35-77 35-86-1-19-38 39-87 134-34 67-34 69-9 45 15-13 42-55 61-93zm-4472 82c17-23 11-59-9-59-16 0-44 39-44 62 0 25 35 23 53-3zm3970-69c34-29 34-31 39-128 5-93 7-103 43-161 46-77 55-86 180-171 183-125 234-185 235-275 0-23 4-45 9-50 6-6 2-19-11-35-19-23-21-24-33-7-7 10-11 27-8 37 3 11-7 40-21 66s-26 54-26 63c0 19-39 59-85 87-140 86-306 284-360 429-26 71-62 124-96 143-16 10-29 20-29 25 0 4 29 7 65 7 57 0 68-3 98-30zm-4149-80c21-28 58-68 82-89s44-44 44-50-16-67-36-134-39-130-41-139c-14-48-29-4-83 249-16 72-36 145-44 162-22 42-20 51 12 51 22 0 36-11 66-50zm155-19c-9-49-15-61-28-59-33 6-20 98 14 98 8 0 14 3 14 8-2 14 1 25 6 21 2-3 0-33-6-68zm-69 14c0-29-15-33-29-6-11 20-5 31 16 31 7 0 13-11 13-25zm130-105c0-6-8-27-19-48-41-81-102-349-137-602-20-146-27-246-32-475-6-235-9-286-19-269-32 56-46 399-25 603 20 192 43 292 140 616 50 166 58 185 77 185 8 0 15-5 15-10zm3625-144c11-33 30-67 51-87 35-34 44-69 21-87-18-15-33-2-45 38-5 19-21 66-36 104-14 37-26 75-26 83 0 29 19 2 35-51zm165-100c0-17-14-29-23-20-8 8 3 34 14 34 5 0 9-6 9-14zm30-161c60-122 66-128 213-260 86-77 141-118 167-126 37-11 39-11 90 32 29 24 58 56 66 71 14 27 15 28 44 13 16-8 34-23 39-33s44-47 87-82c86-72 181-186 221-263l26-51-19-56c-18-52-117-214-147-238-11-10-33 3-105 62-51 41-120 107-154 146-38 43-101 98-158 137-135 94-249 191-297 254-74 98-91 142-121 319-6 36-12 45-32 50-27 7-27 12-9 83 15 59 37 44 89-58zm-130 49c0-8-5-12-10-9-6 4-8 11-5 16 9 14 15 11 15-7zm-13-66c-3-8-6-5-6 6-1 11 2 17 5 13 3-3 4-12 1-19zm78-146c16-97 28-128 77-200 16-23 26-47 23-52s11-29 33-52c21-24 57-74 79-113 48-81 96-129 208-210 92-66 315-282 315-305 0-21-132-138-208-184-34-21-73-54-87-73l-24-36-4 34c-3 19-11 77-17 129-23 188-44 247-128 362-45 62-296 236-365 254-25 6-28 4-25-11 1-10 15-22 29-26 46-12 138-77 155-110l16-32-33 22c-60 40-118 60-197 70-42 5-86 13-95 17-27 10-36 43-27 100 10 64 29 109 72 171 19 27 49 87 67 134 45 113 112 234 118 213 1-5 9-51 18-102zm1006-345c10-6 22-18 25-27 11-25 21-110 13-110-6 0-118 151-127 172-4 8 60-17 89-35zm128-136c29-90 28-261-4-489-13-96-26-176-28-179-3-2-28 29-56 69-58 82-58 71-10 228 34 113 53 229 46 282-3 21-1 41 4 44s7 34 3 72c-6 59-5 65 9 52 8-8 24-44 36-79zm-756-6c79-54 145-110 182-151 32-37 99-100 149-142 50-41 92-80 94-87s-4-18-13-25c-14-11-31 2-133 102-64 63-169 154-232 201-64 47-125 99-136 114-26 35-46 73-39 73 2 0 60-38 128-85zm-200-201c37-37 54-70 43-81-7-8-48 29-88 80-26 33-28 37-11 37 11 0 36-16 56-36zm844-29c-6-64-38-186-56-214-8-12-18-8-55 23-25 20-46 40-46 43s24 38 54 77c29 39 62 86 72 104 28 49 38 39 31-33zm-4683-28c25-19 10-47-25-47-29 0-35 12-23 44 7 19 24 20 48 3zm111-66c25-26 34-41 24-41-9 0-26 11-39 25s-29 25-36 25c-17 0-37 27-29 40 9 14 32 0 80-49zm-150-16c31-26 70-121 53-131-12-8-35 24-42 59-3 16-16 32-30 38-26 12-40 35-30 50 8 13 16 11 49-16zm235 0c7-9 10-18 7-22-8-7-37 15-37 28 0 14 16 11 30-6zm-88-87c41-45 43-57 6-37-29 15-58 48-58 66 0 21 11 15 52-29zm68 12c0-13-5-18-15-14-8 4-15 12-15 20s7 14 15 14 15-9 15-20zm86 5c4-8 14-15 24-15 23 0 35-16 19-26-12-7-60 25-67 44-6 18 18 15 24-3zm-428-36c-1-13-7-24-12-24-11 0-17 32-9 52 8 22 25 0 21-28zm736 20c14-11 26-29 26-40 0-27-10-23-49 22-37 43-23 54 23 18zm3989-32c162-176 224-333 234-597 6-150-10-240-65-383-29-74-140-272-148-264-3 2 22 62 54 133 71 156 88 204 107 314 28 161 10 330-50 457-21 45-30 75-24 79 7 4-1 19-19 38-16 17-66 77-111 133-71 89-81 105-71 123 17 32 42 24 93-33zm-4637-25c-2-1-17 5-34 14-30 15-40 33-25 47 6 6 64-54 59-61zm769 28c-9-14-25 5-25 30 0 12 3 12 16-2 9-9 13-21 9-28zm105-30c24-47 30-72 30-122 0-76-10-138-21-138-4 0-31 22-59 49-45 43-59 51-114 60-78 14-298 14-391 0-91-13-198-45-224-67-12-9-39-62-62-117-22-55-52-115-65-133l-26-33 25-32c45-58 292-307 305-307 29 0 3 33-134 175l-145 150 29 55c16 30 44 94 63 143 18 48 36 87 39 87 10 0 4-86-8-107-6-12-12-37-12-56s-7-40-15-47c-20-17-19-40 3-40 9 0 35-12 57-27 71-49 136-64 296-70 119-4 156-2 205 12 68 20 180 79 188 100 10 27-13 25-64-6-81-50-157-69-271-69-74 0-114 5-156 20-32 11-64 20-72 20-20 0-115 46-128 62-16 19 6 77 37 99 14 10 40 20 58 24 27 6 32 4 32-12 0-70 52-142 127-175 84-37 170 7 223 115 28 57 30 69 22 101-9 32-8 36 9 36 19 0 110-75 162-133 16-18 33-31 39-29 25 7 2-114-127-688-42-184-80-360-86-390-13-69-23-79-44-46-30 46-20 129 41 316 19 61 18 70-11 70-19 0-26-7-34-37-6-21-11-44-11-52 0-7-15-48-34-90s-49-123-66-181c-47-155-138-407-171-472-32-63-60-88-101-88-24 0-28-4-28-28 0-20-15-45-48-83-67-76-230-239-239-239-4 0 10 18 31 39 69 70 79 193 27 317-64 153-100 887-79 1614 6 189 4 259-6 307l-13 62 24 6c23 5 47-6 65-30 14-19 8-65-22-158-30-95-37-160-20-187s17-28 74 245c22 103 25 110 47 110 15 0 24 6 24 15 0 11-11 15-37 15-47 0-65 16-43 39 21 21 27 20 55-6 19-18 35-23 71-22 26 1 55 7 66 13 11 5 51 13 89 16 38 4 81 11 97 15 16 5 51 5 86-1 40-7 75-8 105-1 39 8 49 7 77-12 18-11 41-26 51-32s27-19 38-29c26-24 48-13 52 27 5 50 30 47 56-7 16-33 27-45 40-43 24 5 21 63-7 120-11 24-21 48-21 52 0 19 23-11 50-64zm-395 30c-5-8-11-8-17-2s-7 16-3 22c5 8 11 8 17 2s7-16 3-22zm3353-104c49-68 83-184 90-302 5-110-4-133-34-86-9 15-34 46-53 70l-36 43-1 112c0 62-4 133-8 160-10 59 1 60 42 3zm-3448-142c-212-63-244-67-206-25 28 31 151 57 276 59 39 1 29-4-70-34zm438-46c62-64 62-64 53-104-5-21-9-32-10-23-1 18-123 139-160 159-14 7-50 13-80 14-31 1-63 6-71 11-18 12 165 24 190 13 8-4 43-35 78-70zm-313 7c0-5-13-11-28-13-16-2-31-10-34-18-7-18-33-18-33 0 0 7 10 21 23 30 24 17 72 18 72 1zm-155-61c12-31 13-74 1-74-7 0-41 75-41 93 0 19 32 4 40-19zm207 6c14-21 3-33-21-24-19 7-22 44-3 44 7 0 18-9 24-20zm1-84c3-12-1-17-10-14-7 3-15 13-16 22-3 12 1 17 10 14 7-3 15-13 16-22zm-88-6c0-11-7-20-15-20-15 0-21 21-8 33 12 13 23 7 23-13zm-87-16c-4-10-9-12-15-6-12 12-1 35 12 27 5-3 6-13 3-21zm3464-50c50-66 65-106 43-119-13-8-61 30-88 70-26 38-41 130-21 123 8-2 38-36 66-74zm27-160c18-18 19-24 7-43-7-10-12-8-25 10-29 42-15 67 18 33zm74-62c-3-14-6-14-16 6-7 12-10 27-6 33 9 15 27-16 22-39zm-22-114c-19-155-29-219-36-223-4-3-12 14-18 37-9 34-8 53 8 103 10 33 21 77 25 98 10 59 28 46 21-15zm24-265c-11-53-34-83-50-67-5 5-1 37 10 79 10 39 22 93 25 120 4 28 10 55 14 60 11 19 13-140 1-192zm-116 71c3-9 6-33 6-55 0-29-5-42-22-53-49-30-170-38-196-13-14 15-14 18 2 36 10 11 43 29 74 42 31 12 68 30 82 40 31 23 46 24 54 3zm26-154c0-27-65-181-95-227-32-48-143-148-153-138-3 2 15 31 39 63 24 33 78 116 119 185 69 116 90 143 90 117zm53-162c-15-79-8-227 15-315 12-45 22-90 22-100-1-16-2-16-16 2-9 11-27 40-40 65s-28 52-33 60-13 26-18 40c-6 14-19 43-29 65l-18 40-4-33c-2-19 1-47 7-64 13-36 14-88 3-106-5-6-35-28-67-47-51-31-60-34-73-21-17 17-28 102-18 141 4 14 38 58 77 98s88 102 110 139c34 59 49 72 82 77 5 0 5-18 0-41zm577-138c-6-11-13-20-16-20-2 0 0 9 6 20s13 20 16 20c2 0 0-9-6-20zm-3926-112c10-20 24-42 32-49 10-8 11-16 3-30-7-15-6-19 5-19 16 0 22-16 30-90 5-45 4-46-56-100-45-40-59-49-54-32 11 34-24 28-58-10-27-32-28-32-11-4 10 16 27 45 38 65s34 50 50 68c20 21 27 37 23 49-6 15-11 13-43-17-19-19-56-65-81-104-54-84-51-80-57-73-3 3 19 70 48 149 55 146 66 178 88 259l12 45 7-35c3-19 14-52 24-72zm3044-15c-6-21-7-66-4-100l7-63h-35c-42 0-49 16-36 77 12 52 58 136 70 128 5-3 4-22-2-42zm-2854-62c3-4 19-11 35-14 42-9 131-66 131-84 0-15-2-15-17-1-22 19-103 15-171-8-25-8-49-11-53-7-6 7-13 88-10 116 1 10 79 9 85-2zm3586-11c-31-58-108-155-141-180-41-30-98-45-129-35-15 5-70 84-70 101 0 2 16 4 36 4 81 0 215 48 274 99 42 36 44 37 30 11zm-461-47c20-42 21-48 7-62-10-9-19-12-25-6-13 14-25 115-14 115 5 0 19-21 32-47zm-77-39c-6-37-12-44-35-44-13 0-32 6-42 14-18 13-16 15 21 34 45 24 60 23 56-4zm116-72c3-17-2-22-18-22-25 0-38 29-19 41 20 13 34 6 37-19zm-3227-19c-47-65-68-86-82-81-10 4 1 20 37 57 56 56 77 67 45 24zm3221-83c-5-96-60-256-85-247-17 5-29 101-23 181 6 83 32 119 81 114 29-3 30-5 27-48zm78-96c0-116 0-116-31-146-44-45-57-26-36 52 10 33 22 92 27 131 6 39 13 75 16 80 16 26 24-14 24-117zm-3420 73c0-2-18-21-40-42-47-46-53-40-9 10 26 29 49 44 49 32zm-719-68c22-11 39-28 43-42 10-43-6-171-30-236-13-35-22-66-20-69 7-6 63 108 75 156 15 54 31 45 31-16 0-60-36-136-86-184-48-46-143-90-196-92-34-1-45 5-74 36-63 69-46 167 52 295 46 59 61 72 87 75 18 2 32 8 32 13 0 17-64 17-113 1-60-21-69-20-46 5 50 55 130 92 179 82 17-3 46-14 66-24zm3903-234-21-50-12 28c-13 33-14 96-2 115 6 11 11 10 25-3 21-21 21-11-1 26-16 27-16 31 3 86l19 58 6-105c4-93 3-111-17-155zm-4135 116c-90-126-92-132-120-240-29-117-30-186-1-208 26-21 169-16 248 8 74 22 154 64 154 79 0 13 0 13-63-15-82-36-166-55-245-55s-82 3-82 78c0 63 13 83 29 44s67-91 97-98c27-7 120 19 184 50 25 13 59 26 75 30 20 5 77 54 170 147 78 76 144 139 148 139 11 0-75-133-112-173-79-85-253-209-332-236-113-40-289-47-289-11 0 5-9 19-19 29-49 49-61 204-22 284 12 26 29 47 37 47 7 0 18 18 24 40 9 33 18 43 53 59 23 11 50 20 61 20 16 1 17-1 5-18zm4248-98c-22-22-29 0-9 28 15 22 17 22 20 5 2-10-3-25-11-33zm-57-41c0-30-24-71-35-61-6 6 23 89 31 89 2 0 4-13 4-28zm-4439-125c-8-8-11-5-11 9 0 27 14 41 18 19 2-9-1-22-7-28zm15-98c5-52 11-72 23-76 24-9 51-35 46-44-9-13-64 11-85 38-14 18-20 41-20 79 0 107 25 109 36 3zm564-68c0-12-26-38-50-51-10-6-70-28-134-50-153-54-263-58-243-8 3 9 38 18 103 26 104 12 246 51 279 76 23 17 45 21 45 7zm3840-17c0-8-4-12-10-9-5 3-10 10-10 16 0 5 5 9 10 9 6 0 10-7 10-16zm-4355-73c27-4 43-13 51-28 6-13 18-31 26-40 8-10 18-26 21-36 8-22 73-50 101-44 12 3 65 23 119 46 53 23 100 41 103 41 4 0-17-19-46-42-41-32-62-42-101-46-62-6-60-26 3-30 40-3 51 2 107 45 116 89 194 143 200 138 8-8-55-70-169-165-58-49-122-109-143-134s-43-46-48-46c-6 0-7 4-4 10 3 5-10 16-30 24-19 8-35 20-35 27 0 6-6 9-14 6s-20 1-26 9c-7 8-20 14-29 14-24 0-93 71-123 127-15 27-33 71-41 100l-16 52 27-11c15-6 45-14 67-17zm4393-16c17-36-4-41-23-5-13 24-13 30-2 30 8 0 19-11 25-25zm-4187-82c-37-15-62-14-68 3-3 8 14 12 49 11h53zm488-40c-8-10-25-27-39-38s-59-50-100-87-95-77-119-89c-46-23-128-36-156-25-15 5-14 9 2 37 23 40 35 49 70 55 87 15 171 53 302 136 52 33 58 34 40 11z"/><path d="m7152 6763c2-10 10-18 18-18s16 8 18 18c2 12-3 17-18 17s-20-5-18-17z"/><path d="m3265 6142c-147-112-304-227-337-246-38-21-47-39-28-51 11-7 79 38 295 194 106 76 145 112 145 133 0 17-27 6-75-30z"/><path d="m2371 4623c-7-21-33-72-57-114-45-77-52-99-34-99 24 0 130 197 130 240 0 25-27 6-39-27z"/><path d="m2160 4356c0-8 4-17 8-20 13-8 35 11 28 23-10 16-36 14-36-3z"/><path d="m3628 8984c-11-10 3-34 19-34 8 0 13 7 11 17-3 18-20 27-30 17z"/><path d="m4966 7038c-9-12-16-30-16-40 0-19-65-89-100-108-20-11-21-10-10 9 6 12 16 21 23 21 12 1 69 81 62 88-10 10-58-29-125-100-58-62-82-80-105-81-44-3-38 24 10 47 36 16 105 81 105 97 0 4-7 10-16 13-13 5-14 9-4 21 11 14 15 14 32-2 16-15 21-15 28-3 6 10 3 21-8 33-13 15-25 17-57 13-22-3-44-6-50-7-5-1-17 2-26 5-10 4-23 0-34-10-14-15-20-16-38-5-43 28-104 25-170-8-65-32-146-42-217-27-33 7-60 1-100-23-8-5-32-17-52-27-40-19-58-49-58-94 0-38-12-44-41-21-28 21-61 30-141 36-67 5-71-1-30-54 16-20 37-51 48-68 21-38 49-45 39-10-4 12-18 40-31 62l-25 40 35-40c20-22 47-70 61-106s39-79 56-95c43-41 57-72 89-198 18-74 32-111 41-111s14 11 13 30c-2 43-42 182-65 228-17 33-19 44-9 67 6 15 11 34 10 41-4 28 0 49 10 49 6 0 10-9 10-20 0-20 25-38 36-27 4 3 7 23 8 44 3 49 20 79 55 97 37 20 45 10 20-24-24-32-31-97-10-92 7 1 19-2 25-7 23-19 83 6 106 44 15 24 29 35 45 35 12 0 28 7 36 16 9 11 22 14 43 10 27-6 36 1 103 70 41 42 77 74 80 70 4-4-19-31-51-61-59-56-68-82-25-77 55 5 116 5 154-2 39-8 42-6 85 38 49 51 55 53 77 31 8-9 20-14 27-13 17 6 109 197 102 214-8 21-43 17-60-8zm-401-28c-3-5-10-10-16-10-5 0-9 5-9 10 0 6 7 10 16 10 8 0 12-4 9-10zm15-91c-82-77-118-104-125-97-3 3 19 30 47 61 53 56 138 120 148 110 3-3-29-36-70-74zm-80 54c0-12-222-225-227-219-16 16 106 159 177 208 26 19 50 23 50 11zm-230-28c-12-15-30-12-30 6 0 5 10 9 21 9 18 0 19-2 9-15zm-69-52c-18-37-51-74-51-59 0 10 40 88 53 105 20 24 19-6-2-46zm121 8c-29-28-52-55-52-60 0-6-11-11-25-11s-25 4-25 9c0 17 114 111 134 111 15 0 7-11-32-49zm-221-54c-18-18-25 1-11 30l14 28 4-24c2-13-1-28-7-34zm-125-52c8-13 14-32 12-42-2-13-9-9-26 20-25 43-26 47-12 47 5 0 17-11 26-25zm97-57c4-12 4-24 1-27-6-7-24 20-24 37 0 21 17 13 23-10zm207-7c0-12-31-43-37-37-7 7 16 46 27 46 6 0 10-4 10-9z"/><path d="m5133 7033c-13-2-33-18-45-34-13-16-33-42-44-57-25-32-41-92-25-92 17 0 13-27-4-34-8-3-28-3-44 0-32 7-45-6-36-36 9-28 35-40 102-44 43-3 59-9 61-20 5-25 31-19 38 8 7 30 47 30 69 0 11-15 17-17 32-8 10 6 20 22 21 35 8 51 42 66 42 19 0-37 25-50 45-24 15 20 17 18 19-36 1-32 4-35 28-32 14 1 29-2 33-8 3-5 15-10 25-10 14 0 21 11 28 43l9 42 11-27c6-16 16-28 21-28s12-9 16-19c3-11 19-26 35-33 34-15 37-24 15-48-13-15-12-19 13-37 37-28 53-17 59 40 6 49-24 164-52 205-16 22-95 69-95 56 0-4-20 14-44 39s-56 49-72 53-43 22-60 41c-42 44-69 43-88-2-16-38-36-47-36-15 0 11-3 20-8 20-4 0-12 10-17 22-11 24-19 27-52 21zm11-80c-13-63-36-112-55-118-11-4-22-5-24-3-6 6 55 132 68 140 18 11 18 11 11-19zm156 15c0-42-14-88-26-88-17 0-17 11-2 61 11 37 28 53 28 27zm136-131c-2-18 1-47 5-66 4-20 3-43-2-53-18-33-28-19-23 30 3 26 1 67-5 91-5 25-7 49-4 54 11 17 31-23 29-56zm-205 20c-16-16-26 0-10 19 9 11 15 12 17 4 2-6-1-17-7-23zm-11-81c0-3-4-8-10-11-5-3-10-1-10 4 0 6 5 11 10 11 6 0 10-2 10-4z"/><path d="m4605 6661c-11-5-47-38-79-75-32-36-91-94-132-127-79-66-97-95-70-114 24-18 66-6 110 32 44 36 63 38 58 5-2-12 2-22 7-22 6 0 10 4 9 10-8 27 203 164 221 144 5-5 17-31 27-59 25-66 98-140 154-155 55-15 118 1 156 39 32 32 44 61 44 107 0 27 4 34 19 34 18 0 111-93 111-110 0-5-20-25-44-45-76-62-212-105-242-75-5 5-79 16-164 24-172 17-181 19-218 52-28 27-52 31-52 9 0-11-7-13-29-9-53 11-44-14 16-44 59-30 233-62 332-62 25 0 70-5 100-11 103-22 157-1 318 117 22 16 27 15 99-20 74-35 114-45 114-28 0 44-253 304-337 346-37 18-80 29-145 36-112 12-355 12-383 1zm315-37c100-10 171-23 201-35 30-13 80-55 149-124 57-57 102-106 99-109-8-8-83 23-91 38-17 31-64 80-120 127-48 39-66 49-97 49-20 0-42 5-49 12-17 17-183 12-256-7-32-8-89-29-126-45-104-46-110-40-48 45 53 71 82 75 338 49zm57-90c44-7 30-18-34-28-39-6-43-4-43 14 0 12-4 19-9 15-5-3-13 0-16 5-5 8 5 9 29 6 20-3 53-9 73-12zm-141-29c-5-27-2-42 16-67 13-18 26-34 31-36 12-6 8-22-5-22-17 0-68 51-68 67 0 8-12 25-27 39-25 22-26 25-12 37 9 7 29 13 44 15 26 2 27 0 21-33zm214-42c-28-54-45-73-64-73-22 0-20 31 3 37 10 2 25 20 34 39s24 34 32 34c13 0 12-6-5-37z"/><path d="m4386 6282c-17-16 2-38 77-86 45-29 118-83 162-120 108-91 296-216 323-216 13 0 22 6 22 15 0 8-6 15-14 15-19 0-162 98-272 186-117 94-291 214-298 206z"/><path d="m4020 5751c0-5 30-31 67-57 96-68 278-254 348-354 32-47 84-116 115-153 30-38 65-81 76-95 12-15 63-100 113-190 155-276 175-324 105-251-40 42-178 133-250 165-32 14-88 47-124 73-71 51-134 91-144 91-32 0 58-82 252-228 31-24 86-69 122-101 36-31 85-72 108-91 24-19 68-67 98-107 52-68 128-143 146-143 5 0-4 17-19 37-23 29-24 34-8 26 11-6 31-23 45-38 25-27 59-45 172-90 31-13 84-44 118-70 54-41 60-44 60-25 0 12-10 30-22 41-23 18-23 18 41 19 122 0 175 48 202 178 10 49 11 74 1 120-16 78-15 92 3 68 8-11 15-35 15-54 0-22 4-31 11-26 7 4 10 27 7 60-3 39-1 54 8 54 18 0 25-326 7-356-19-35-96-64-186-71l-82-6 35-15c47-19 130-10 191 22 26 13 50 22 53 19s-2-19-12-35c-17-29-140-98-175-98-21 0-30-17-13-23 16-7 90 14 136 38 17 9 35 14 38 10 12-12-53-119-105-174-48-50-54-53-88-48-43 7-92-8-105-33-28-52-236-20-383 58-52 28-76 22-37-10 101-82 337-138 411-97 13 7 56 14 95 15 63 1 79 5 132 38 67 40 72 42 72 21 0-25-84-73-175-99-71-21-111-26-197-26-99 0-108-2-122-22s-18-20-41-8c-14 7-74 56-133 108s-146 128-194 169c-73 63-238 248-238 268 0 8 60-24 98-53 18-14 35-22 39-18 9 9-22 41-102 105-108 86-115 93-141 137-33 55-31 70 5 45 16-12 37-21 47-21 13 0-9 27-67 83-92 89-134 145-167 220-11 26-27 47-34 47s-37 30-66 68c-79 102-149 178-158 170-4-4 8-31 26-60 103-165 122-199 117-205-4-3-14 0-23 8-27 22-167 240-168 262-1 11-6 22-13 24-18 6-27-44-14-73 6-14 11-32 11-41 0-14-2-14-15 3-8 10-15 27-15 36 0 20-41 51-52 40-5-5-1-25 7-46 25-58 13-63-29-12-36 44-66 60-66 34 0-6 7-20 16-30s18-37 19-60c1-24 6-51 10-60 5-13 3-18-8-18-9 0-19 5-22 10-3 6-13 10-21 10-13 0-14-12-9-79 5-51 4-81-3-85-17-10-23 9-26 86-4 72-4 73-31 70-25-3-26-1-19 34 6 32 4 36-12 32-14-2-24-21-36-68-26-97-26-96-44-78-9 9-16 36-17 64-2 45-4 49-26 49-17 0-30-10-43-35-11-19-27-42-37-51-10-8-26-30-35-48-20-39-31-36-16 4 12 33 4 66-14 59-14-6-14-5-80-147-35-77-60-113-111-166-36-37-65-73-65-79 0-7 11-12 24-12 25 0 106 80 154 152 28 43 47 50 38 13-13-50-17-140-7-155 16-24 29-1 41 75 13 89 48 205 60 205 6 0 10-5 10-11 0-27-52-263-62-283-44-85-232-306-259-306-24 0 1 84 50 169 28 49 51 94 51 100 0 13-10 14-26 3-17-11-127-142-184-218-28-38-78-97-111-131-62-66-69-80-44-89 17-7 10-25-8-23-39 5-96-3-113-15-27-20-13-28 48-30 55-1 60-7 43-48-12-29 14-21 43 13 24 29 149 95 159 85 13-13-175-136-208-136-6 0-24-10-41-21-16-12-69-37-116-56-86-33-156-43-199-28-19 6-23 4-23-14 0-11 11-28 25-37 23-15 34-15 171 10 81 14 150 23 155 20s19 0 31 7c25 14 88 29 88 22 0-2-31-47-70-98-76-103-105-124-184-132-51-5-52-5-71 31-17 30-21 33-26 18-10-27 4-83 23-96 17-10 93 0 142 20 15 6 17 4 11-14-4-15-2-22 8-22 17 0 41 27 91 102 21 32 59 79 85 105 25 26 63 72 84 100 21 29 53 65 71 80 18 16 75 86 127 157s153 196 224 278c83 95 139 169 156 205 24 52 27 55 34 33 7-23 8-23 21-5 16 22 16 23 43-38 31-72 85-141 137-176 25-16 58-49 73-73 35-54 46-63 99-79 45-13 70-5 37 14-11 6-44 36-72 66-41 44-53 63-53 89 0 18-12 55-26 83-24 48-24 52-9 76 9 13 18 23 21 21 2-2 24-47 50-99 99-203 146-264 237-310 51-26 57-32 51-54-7-27 20-81 45-91 9-3 29-7 45-10 16-2 43-16 60-32s65-51 106-78c94-61 86-55 94-81 11-34-11-30-117 23-115 58-195 113-225 153-47 64-59 20-14-54 25-42 39-51 172-116 80-39 167-82 195-95 29-14 53-20 58-15s41 7 80 4c75-6 89 9 20 21-80 13-110 26-122 52-6 15-10 29-7 31 2 3 35-9 73-26 71-31 164-44 170-24 2 6 14 8 26 6 15-4 19-3 12 5-5 6-35 15-65 20-37 5-72 20-109 45-29 20-57 37-61 37-11 0-21 28-12 34 7 4 94-30 197-78 108-50 235-97 245-91 19 11 10 24-28 44-40 21-69 48-59 57 3 3 22-5 44-18 43-28 80-42 141-58 23-6 42-15 42-20 0-4 17-14 38-20 20-7 42-19 49-27 8-10 17-12 30-5 11 6 44 6 90-1 78-11 83-15 99-97 10-55 33-105 44-94 5 5 0 46-14 104-26 105-21 129 19 89 22-21 27-41 40-144 8-65 13-121 10-124-10-10-97 85-121 132-26 50-54 63-54 25 0-35 18-145 36-220l16-67-58-56c-32-30-63-55-70-55-13 0-24 22-24 49 0 9-20 52-45 96-52 91-85 188-85 250 0 44-31 88-50 69-12-12-43-243-43-319 0-67 30-174 98-356 31-83 52-163 70-266 28-166 28-163 16-163-5 0-23 42-40 93-32 95-64 157-80 157-27 0-42-34-37-79 9-65-9-88-23-30-6 24-18 66-26 93-8 26-15 63-15 80 0 24-10 42-44 76l-45 43-10-24c-5-13-12-44-16-69-12-93-34-92-59 5-24 91-22 111 14 118 77 16 111 247 45 313-36 36-97 33-136-5-16-16-29-36-29-44s-11-18-25-21c-33-8-49-36-75-131-32-115-35-118-58-65-10 25-24 67-31 93-14 59-50 137-62 137-19 0-7-53 42-201 51-152 55-173 46-288-3-51 20-50 43 1 13 29 20 66 20 113 1 74 47 250 65 250 6 0 15-18 20-40 6-22 19-53 29-68 11-16 32-80 47-143 16-64 35-129 43-145 8-17 18-68 22-113 5-68 3-95-12-142-12-38-20-51-22-38-3 24-44 50-61 40-6-4-11-18-11-30 0-36-27-106-56-143-28-38-72-59-87-44-5 5-8 55-8 112 1 84-2 111-18 139-35 67-94 44-108-43-3-20-10-40-16-44-11-7-39 26-62 75-9 17-21 32-26 32-6 0-32 46-58 103-44 94-49 111-56 203l-7 101 41 74c22 41 65 110 95 154 50 74 58 95 36 95-13 0-114-139-145-200-14-29-29-49-33-45s-12 23-17 43c-7 26-17 38-32 40-18 3-22-3-28-40-10-58-68-233-94-283-12-21-21-49-21-60 0-12-6-30-14-41-14-18-15-18-20 6-2 14-10 101-17 193-13 183-27 230-68 235-19 3-22 8-18 30 9 46-9 65-54 58-35-6-40-4-52 21-18 34-42 133-59 233-14 86-17 395-5 425 15 34 51-53 96-230 32-126 53-185 100-280 33-66 74-153 92-192 18-40 36-73 40-73 13 0 11 9-16 91-63 183-102 515-47 395 18-40 82-105 129-133 32-19 64-27 114-31 40-3 69-1 69 5 0 5-26 20-57 33-194 79-253 165-297 441-7 40-43 86-58 71-5-5-5-26 1-53 5-24 15-114 20-199 6-85 13-182 17-215 9-100-11-53-60 140-25 98-57 202-70 230-14 27-32 67-40 88-17 42-48 49-54 12-7-47-25-105-33-105-5 0-9 7-9 15 0 21-23 19-43-3-12-13-17-37-17-78 0-62-21-150-33-138-3 4-4 102-1 218 5 202 4 213-15 236-13 17-23 22-29 15-5-5-17-62-26-125-20-141-54-274-55-219-1 20 6 80 14 135 19 125 19 144 0 144-8 0-15 5-15 10 0 24-31 7-59-32-74-105-171-349-158-400 10-37 38-44 61-16 19 23 19 23 12-42-4-36-11-99-16-140-10-96-3-165 23-212 23-42 43-51 33-15-25 83-15 290 21 409 12 42 17 49 25 35 5-10 8-25 7-35-3-32 1-40 21-45 14-4 20-14 20-34 0-15 4-34 9-42 16-25 23 8 16 75-5 53-2 79 20 156 15 51 32 100 37 108 6 9 7-92 4-275-5-315 3-396 43-439 14-14 34-23 56-24 42-2 44 8 6 29-37 21-41 44-41 249-1 131 3 178 17 226 10 34 23 62 28 62 6 1 16-31 22-71 45-259 94-428 129-441 20-8 17-23-10-59-13-18-36-66-51-107-16-41-38-95-51-120-58-115-93-245-95-358-1-32-4-68-8-82-11-34-18 39-25 230-5 134-7 146-29 168-28 28-49 22-68-20-11-24-24-34-59-44-24-7-46-11-49-8s-6 34-6 69-3 67-8 71c-4 4-33-5-65-22-41-21-65-42-88-77-36-55-74-88-74-64 0 8 6 32 14 54s19 107 26 188c10 129 15 155 40 204 31 62 55 140 46 149-8 7-31-22-63-83-22-40-28-46-31-29-2 12 13 48 32 80 39 65 42 74 23 74-17 0-64-51-108-115-19-27-39-53-46-58-7-4-22-25-34-47-24-42-44-48-44-14 0 10-7 19-15 19-16 0-34-92-25-132 6-25-83-215-115-247-16-17-22-17-49-7-16 7-36 11-43 8s3-12 25-21c20-9 37-19 37-22s-13-22-29-42c-36-47-44-69-26-76 9-3 35 19 69 57 30 34 57 60 59 57 3-3-13-43-34-89-45-96-47-131-4-56 64 111 85 136 112 133 39-4 91 69 132 187 18 52 37 98 42 101 17 10-4-151-26-211-35-91-38-105-24-121 8-10 9-21 2-37-23-51-171-218-266-301-56-48-133-118-171-155-41-40-70-61-73-53-9 24-41 13-52-19-6-17-25-48-42-70s-29-43-26-46c4-3-1-20-10-37-20-39-30-18-15 33 50 179 132 571 132 634v27h90c127 0 120 26-10 39l-65 6 4 30c10 68 7 99-12 103-12 2-20-4-24-17-7-26-21-27-39-3-11 15-14 15-28 2-8-8-25-42-38-75-14-33-50-102-81-153-30-51-57-98-60-105-2-6-7-9-11-6-4 4 12 44 34 90 22 45 40 91 40 101s14 47 31 84c17 36 29 74 26 85-3 10 3 40 13 66 10 27 23 85 29 131 6 45 18 93 27 107 16 24 16 25-8 25-15 0-38-14-59-36-18-20-42-40-52-46-16-8-17-7-9 9 15 28 48 54 155 127 92 62 225 136 246 136 5 0 11-9 14-21 3-11 15-23 26-26 25-6 26-16 5-34-37-30-135-162-130-174 7-20 45-13 91 16 33 21 97 49 111 49 17 0-5-41-51-95-30-35-55-74-55-85s-7-23-16-27c-18-7-57-90-49-103 13-21 38 8 75 83 41 83 112 177 134 177 30 0 51 121 25 147-17 17 4 62 75 157 66 89 183 271 217 338 12 24 42 67 67 96 41 48 44 55 29 64-16 8-16 11-2 31 19 28 20 51 0 43-8-3-18 2-23 11-14 23-25 12-83-83-29-47-70-104-92-127-45-49-40-37 24 59 70 104 140 236 135 251-11 27-35 11-66-44-18-31-62-84-97-117-114-106-263-294-263-331 0-8-20-30-45-47-25-18-45-38-45-45 0-16-4-17 56 6 72 26 228 136 281 198 25 30 48 51 50 49 6-5-142-273-165-299-9-10-21-16-28-13-14 5-40-21-31-31 13-12-16-33-45-33-26 0-29 2-18 15 25 30-1 28-83-4-115-46-264-132-352-202-41-32-75-57-75-55 0 3 4 16 10 31l10 26-36-27c-48-37-61-62-38-78 15-12 12-17-31-59-41-38-46-48-36-61 10-12 10-19-1-34-28-41-159-174-165-169-3 3 2 25 12 49 9 24 19 74 22 112 5 79 19 111 92 211 28 38 51 72 51 75s-16 6-35 7c-25 1-38-4-46-18-15-29-29-23-29 12 0 18 18 59 45 105 25 40 45 78 45 84 0 5-21-2-46-15-57-30-71-31-79-4-6 17 4 33 47 78 56 58 72 83 87 139 16 55-20 40-74-33-16-22-59-71-95-110-78-84-121-139-144-182-13-27-14-36-4-53 17-27 23-26 91 16 31 19 62 34 67 32 6-2-11-35-37-73-60-90-165-293-158-305 13-21 38-8 101 51 36 33 68 59 71 56 8-9-26-116-54-172-48-93-112-256-106-271 3-8 13-14 24-14 18 0 28 11 72 79 15 24 46 46 97 72 41 20 76 36 78 34 2-1-13-43-33-91-60-147-85-220-91-271-4-26-17-64-29-84-31-47-19-71 22-44 23 15 26 16 14 2-7-9-11-23-8-31 6-15-95-212-157-306-38-58-43-79-24-98 17-17 46-15 97 8 24 11 46 19 47 17 5-5-10-77-30-152-27-96-32-189-12-220 27-41 108-27 91 17-3 8 4 50 16 94 12 43 22 87 23 97s6 21 11 25c6 4 23 26 38 50 15 23 31 42 36 42 17 0 23-61 16-149s-26-151-44-151c-15 0-14-37 2-43 6-2 20 0 30 5 29 15 32 3 19-73-17-97-16-184 3-199 20-17 50-8 51 15 1 11 9 37 18 58 22 51 125 210 142 220 7 4 28 29 45 55 18 26 34 49 35 51 4 5 64-56 64-64 0-18-138-288-181-356-27-42-52-90-55-107-5-27-3-33 18-43 55-25 132 56 164 171 15 54 30 100 77 235 13 38 29 71 36 73 8 3 10-4 6-20-53-224-71-422-40-434 17-7 134 39 178 69 38 26 34 8-11-49-21-27-48-65-59-85-21-36-21-37-2-68 11-18 27-31 39-31 27 0 85 59 199 203 125 158 137 139 49-73-59-141-60-178-9-200 36-15 105 1 251 60 103 40 186 94 299 193 30 26 56 45 59 43 2-3 20-40 39-83 30-65 37-95 44-182 11-141 41-181 109-146 27 14 35 14 82 0 28-8 67-15 86-15 68 0 119 89 142 248 7 45 16 85 21 88 15 9 21-23 10-45-16-29-25-193-11-211 9-13 12-12 25 4 11 14 15 47 15 115l1 96 18-35c11-19 30-45 44-58 38-36 45-8 9 41-64 91-77 142-46 186 17 24 47 145 59 239 6 49 5 54-14 59s-19 8 15 49c40 48 54 55 54 25 0-28 38-112 49-109 5 2 26-19 45-47l36-50-72-33c-40-17-79-36-87-40-19-11-37-39-29-47s178 81 201 106c11 12 31 19 52 19 30 0 37 5 55 40 23 46 25 60 6 60-16 0-66-45-66-60 0-12-20-13-35-2-26 19-95 139-95 165 0 8 15 18 32 23 19 6 34 17 36 28 4 16 2 17-28 1-37-19-55-11-25 11 11 8 44 38 73 66 55 54 78 59 43 10-12-17-21-32-21-35s36-4 81-2c70 2 79 0 73-14-4-9-8-38-9-66-2-27-8-62-14-77-7-19-7-28 0-28 13 0 54 92 73 166 8 33 23 65 33 72s47 32 83 55c102 66 211 180 249 259 23 48 36 66 46 61 21-7 20 41-1 62-22 21-36 7-57-57-22-65-78-148-141-206-57-51-186-137-186-123 0 5 5 88 11 186 10 170 9 179-12 253-22 73-22 76-4 86 10 6 37 28 60 48 23 21 45 38 47 38 3 0 13-41 23-91 20-103 42-141 102-176l42-24 15 23c20 31 38 228 30 330-3 46-15 121-27 168-23 96-29 231-9 238 8 2 10 15 6 37-3 18-2 41 4 51 9 16 10 16 20-2 5-10 15-53 22-94s17-100 23-130c7-30 12-122 13-205 1-144 7-173 31-143 15 18 51 207 59 306 4 45 10 82 14 82 10 0 24-34 53-130 21-68 33-90 57-109 50-37 61-18 56 98-3 53-7 110-11 126-6 29-5 28 37-18 27-30 51-47 66-47 30 0 28 12-7 38-16 12-57 67-90 123-57 97-60 104-54 153 7 64 25 118 39 123 7 2 25-32 44-79 37-97 53-118 92-118 33 0 48 27 78 140 11 40 23 65 31 65s19 7 26 15c15 18 17 50 3 50-26 0 8 166 36 177 24 9 61-34 90-106 55-133 22-251-71-251-37 0-27-24 11-28 40-3 92 31 110 73 8 19 14 62 14 96 0 51 4 66 25 91 14 16 25 38 25 49 0 27-41 63-90 79s-63 39-90 147c-14 51-18 92-14 127 5 43 2 56-18 86-13 19-45 49-70 65-26 17-46 37-45 45s48 40 103 70c127 69 192 116 235 170 19 23 57 70 85 103 102 124 140 219 148 370 4 84 2 99-13 109-9 7-29 33-43 58s-51 76-82 113c-41 50-56 77-56 99 0 30-1 30-38 24-33-5-47 0-93 29-30 19-59 35-65 35-12 0-71 63-90 96-9 16-14 17-26 6-13-10-30-9-94 9-123 34-201 12-238-66-9-18-23-38-31-45-27-23-36-48-45-134-19-160 33-324 103-326 23 0 22 13-3 35-27 24-57 109-66 183-7 62 10 187 27 197 4 3 15-7 23-22 25-49 71-83 157-116 73-29 86-38 102-69 22-45 34-166 19-195-22-41-214-57-326-28-64 17-149 57-226 107-41 26-57 45-76 86-22 49-122 229-262 472-30 52-72 115-94 139-21 24-38 49-38 56s-16 27-35 44c-20 17-53 56-75 87-134 192-450 476-450 405zm1585-858c44-17 51-23 67-66 10-26 21-80 25-119l6-71-59 7c-48 5-65 13-94 40-36 35-186 136-201 136-22 0-6 41 28 70 36 32 39 32 107 27 39-3 93-14 121-24zm-1560-74c27-61 26-91-2-54-18 24-63 121-63 137 0 24 39-26 65-83zm-165-203c22-122 25-155 11-140-23 23-77 295-63 318 9 15 31-61 52-178zm1904 73c29-74 56-180 56-224 0-52-68-170-87-152-4 5-8 75-8 155 0 81-4 188-9 237-7 82-7 88 7 69 9-11 27-49 41-85zm-1655 42c-3-7-13 3-23 21l-19 33 23-21c12-12 21-27 19-33zm1308 2c67-47 73-69 11-37-54 27-88 54-88 70 0 21 5 19 77-33zm402 28c11-11 31-27 45-36 16-11 26-27 26-41 0-13-2-24-5-24-6 0-99 100-103 111-6 16 17 10 37-10zm-1104-66c82-56 122-91 114-100-9-9-68 30-139 93-39 34-68 62-64 62s44-25 89-55zm-618-22c8-19 12-37 9-40-7-7-56 69-50 79 9 14 25-2 41-39zm1750-16c15-22 20-41 16-60-9-46-18-39-39 33-22 72-14 82 23 27zm-2137-21c0-71 73-245 136-323 37-46 40-53 21-53-20 0-95 76-116 118-49 96-71 166-71 227 0 34 3 65 6 68 13 13 24-5 24-37zm220 7c6-21 13-58 15-83l5-45-15 40c-21 52-35 125-24 125 4 0 13-17 19-37zm74-25c4-16 13-28 21-28 9 0 30-20 47-45 25-36 34-42 46-33 14 12 13 54-3 93-7 18-6 18 17-3 24-22 27-22 36-7 18 33 53 4 153-128 287-381 290-384 496-563 72-63 134-120 136-127s0-20-5-30c-7-14-5-24 9-40 17-20 17-20-21 2-22 12-67 33-101 46-33 12-84 34-112 49-49 24-52 28-55 68-2 35-7 44-25 46-12 2-29 14-38 28-12 19-20 23-29 15-10-9-22 13-54 97-41 105-79 161-101 147-7-4-9-22-5-46 5-28 3-39-6-39s-10-12-6-45c6-37 5-44-7-39-17 6-121 174-137 221-14 37-32 46-64 31-42-19-56-5-56 55 0 64-20 91-46 65-14-14-14-21 0-68 9-29 13-63 10-76-4-14-2-30 4-37 13-17 24-97 13-97-9 0-65 80-90 127-21 40-60 158-67 201-5 35-4 42 9 42 30 0 40 37 23 87-17 51-22 116-6 78 5-11 11-32 14-47zm1973-1c17-23 41-60 54-81 22-38 22-40 4-50-26-15-93-86-110-116-7-14-16-48-20-75-12-81-43-168-69-196-29-32-92-72-105-67-5 2 11 37 37 78 56 92 81 169 92 281 7 72 47 229 66 260 9 15 18 9 51-34zm-1077-53c0-8-4-12-10-9-5 3-10 13-10 21s5 12 10 9c6-3 10-13 10-21zm95-124c4-6 51-40 106-76 122-80 148-109 56-63-99 51-221 149-184 149 9 0 19-5 22-10zm1090-95c0-94-2-104-36-175-48-98-127-209-181-253-46-37-193-117-216-117-25 0-7 19 63 67 49 34 85 69 122 121 64 89 91 160 105 272 11 93 30 131 82 168 54 39 61 29 61-83zm-2602 23c-33-49-140-158-155-158-11 0-4 9 102 140 52 65 76 88 78 76 2-10-9-36-25-58zm2072-62c-30-46-61-58-144-58-42 1-90 6-106 12-33 12-99 60-92 66 2 2 28-3 58-12 68-21 199-14 255 13 44 21 52 15 29-21zm-1321-71c14-19 29-49 33-67 6-31 5-32-11-19-29 24-78 100-71 111 10 17 22 11 49-25zm1521-71c-27-52-55-100-64-107-12-10-13-9-3 10 7 12 12 31 12 43 0 42 82 171 99 155 2-3-17-48-44-101zm-1576-25c7-17 29-45 49-63 19-18 44-43 56-55 82-87 122-122 145-127 14-3 34-9 43-15 10-5 29-9 44-9 24 0 94-60 94-81 0-12-24-11-36 1-6 6-21 13-34 15-13 3-28 11-32 20-5 8-19 15-32 15-19 0-65 27-86 50-13 14-64 42-53 29 7-9 9-20 3-29-7-12-12-11-30 5-12 11-18 25-15 36 8 24-12 63-38 74-33 15-107 112-107 140 0 34 12 31 29-6zm-899-19c-6-11-18-20-27-20-14 0-14 2 2 20 10 11 22 20 27 20s4-9-2-20zm-180-28c0-34-4-40-36-56-20-9-38-15-40-13-4 4 64 107 71 107 3 0 5-17 5-38zm2712-79c-31-44-142-136-142-119 0 3 31 37 69 76 70 71 110 94 73 43zm-2682 8c0-13-128-76-137-68-3 4 9 13 28 22 19 8 45 23 59 35 27 21 50 26 50 11zm2580-18c0-10-83-93-93-93-11 0 31 71 51 88 17 13 42 16 42 5zm-2733-59c-3-3-12-4-19-1-8 3-5 6 6 6 11 1 17-2 13-5zm216-184c-43-68-91-125-100-117-13 13 111 177 134 177 2 0-14-27-34-60zm2452-2c-22-12-58-25-80-29s-71-15-110-25c-76-20-190-23-219-7-14 8 11 12 98 17 77 5 149 17 218 36 125 34 146 36 93 8zm-2685-8c0-12-59-50-77-50-27 0-11 22 30 40 50 23 47 23 47 10zm2048-9c3-8-1-12-9-9-7 2-15 10-17 17-3 8 1 12 9 9 7-2 15-10 17-17zm345-98c-7-2-19-2-25 0-7 3-2 5 12 5s19-2 13-5zm167-33c15-37 8-47-25-32-13 6-47 14-75 18-58 8-55 18 10 32 71 15 77 14 90-18zm-267-346c-2-7 7-23 20-37 38-38 68-104 78-172 8-59 7-65-26-130l-34-67-41 128c-36 114-41 141-42 234-2 124 8 153 32 94 10-21 15-44 13-50zm307 76c0-5 20-32 45-60s45-53 45-55c0-3-18-14-40-25-45-23-41-26-59 52-14 59-14 98-1 98 6 0 10-4 10-10zm-2647-62c-13-12-26-18-30-14s1 14 11 22c31 22 43 17 19-8zm-729 4c8-14-8-31-47-47-50-21-52-20-21 20 25 33 56 45 68 27zm798-108c-7-47-13-64-25-64-6 0-36-11-66-25s-57-23-60-19c-9 9 130 135 143 131 6-2 10-13 8-23zm1985-2c31-20 42-108 22-192-11-50-34-80-60-80-25 0-74 147-64 197 10 57 66 98 102 75zm666-8c3-4 1-16-4-27-9-15-13-17-19-7-14 23 5 51 23 34zm213-57c4-11 0-25-9-35-14-13-17-11-31 23-9 21-16 41-16 46 0 16 50-14 56-34zm-3658-31c-4-32-15-56-43-90-60-73-75-55-29 37 56 109 79 126 72 53zm3407 24c9-27-6-50-16-24-4 10-8 25-8 32-1 20 17 14 24-8zm-36-67c11-55 11-80 1-128-14-68-39-135-50-135-16 0-38 40-69 124l-33 88 63 64c34 34 65 61 69 59s12-35 19-72zm-2339 24c0-17-27-93-60-167-93-209-102-225-125-223-46 6-60 10-56 19 21 47 105 213 135 269 80 145 106 170 106 102zm772-9c-26-26-7-78 29-78 9 0 22-6 28-14 6-7 21-114 32-237 22-244 31-273 66-222 11 15 37 69 57 118 21 50 45 106 53 125 9 19 15 40 14 45-4 16 21 125 30 131 5 3 9-20 9-50s5-58 10-61c6-3 10-40 10-80 0-79 24-154 92-288 31-61 31-63 21-143-7-60-19-100-45-150-19-38-45-102-57-143-17-57-32-84-66-120-29-31-47-43-54-36-5 6-15 41-21 79-26 161-39 194-73 180-9-3-19-21-23-40-3-19-10-34-14-34-9 0-30 110-30 154 0 35-17 66-35 66-8 0-15-9-15-19 0-11-9-57-20-103s-20-98-20-116c0-39-24-53-44-27-14 19-39 119-56 225-6 36-17 94-25 130s-21 103-30 150-23 92-31 102c-14 14-14 22-1 65 8 27 28 76 45 109 16 33 42 89 56 124 36 87 87 170 105 170 12 0 12-3 3-12zm-1505-162c-9-56-68-194-116-270-25-40-62-100-81-134-36-62-57-80-47-39 15 60 50 143 86 204 45 76 93 204 92 245 0 17 8 33 21 42 30 21 52-3 45-48zm933-163c0-16-7-37-15-47-11-14-12-23-4-32 8-10-6-29-56-79-36-36-82-77-101-92-37-28-84-99-84-127 0-9 7-30 15-46 18-34 36-40 220-70 72-11 142-23 158-26 16-4 27-2 27 5 0 26-62 43-265 72-44 7-86 16-92 22-7 5-13 27-13 48 0 33 6 42 42 71 24 18 71 62 105 97 34 36 64 63 66 60 3-2 12-49 21-104s20-103 24-106c4-4 21-10 37-13 24-5 35-2 52 16 34 38 45 92 43 206-3 136-3 143 12 117 8-13 12-77 13-180 0-172 9-211 52-230 15-6 26-24 34-59 13-54 49-99 72-90 8 3 21 22 29 42l15 37 7-50c21-138 50-204 91-206 14-1 30-2 35-3 6-1 10 4 11 9 0 6 6 17 14 25 7 8 19 42 28 75 16 64 20 61 37-26 14-72 32-98 53-80 9 7 17 29 19 48 2 20 8 38 14 40 7 2 16-31 24-94 17-129 23-143 58-143 52 0 133 77 152 145 18 65 32 67 26 4-3-30-10-55-16-57-7-3-3-13 10-27l22-24-17-118c-10-65-21-122-26-127-4-5-28-9-53-9-43 1-46-1-74-45-17-26-37-60-45-77-18-35-23-27-31 60-5 50-11 65-36 87-42 39-90 49-272 57-14 1-18 10-18 35 0 29-8 41-43 70-73 60-141 79-201 56-14-5-40-32-59-60-37-55-41-55-52 2-4 21-23 59-41 85l-35 48 7 88c6 75 4 90-11 107-16 18-45 18-45-1 0-4-17-35-39-68-21-33-42-77-45-96-10-50-47-133-53-117-3 7 0 33 6 57 16 62 14 75-9 75-11 0-27 12-36 28-68 110-98 138-136 129-56-15-181-128-280-254-55-70-106-140-114-155-21-41-27-34-8 10 29 68 42 110 49 155 5 31 16 54 36 73 28 27 39 64 19 64-22 0-8 33 32 76 24 26 83 81 133 124 49 43 135 129 190 190 55 62 125 140 156 174 31 33 75 87 98 119 46 63 61 71 61 30zm-1145-13c-17-32-61-67-72-56-7 7 66 86 79 86 5 0 2-13-7-30zm1063 10c-7-10-14-17-17-15-4 4 18 35 25 35 2 0-1-9-8-20zm216-183c-1-84-5-112-17-124-30-31-50 13-63 139-6 65-6 66 22 82 55 29 59 22 58-97zm-1189-44c-29-53-37-80-39-128-3-59-4-61-65-122-66-66-81-75-81-45 0 35 204 381 217 368 3-3-11-35-32-73zm1415-133c-12-7-12-12-2-22 22-22 14-40-15-36l-28 3 2 100c4 136 12 147 37 47 17-72 18-85 6-92zm-1309 30c-40-115-47-190-31-340l12-119-31-57c-43-79-41-119 5-90 12 8 24 12 28 9 13-14 5-60-19-105-14-26-25-52-25-59 0-9-85-99-93-99-1 0-3 39-4 88-1 94-14 142-37 142-8 0-38-33-67-72-30-40-62-79-71-86-10-7-18-18-18-24 0-17-43-83-47-71-2 6 3 30 12 54 20 56 55 188 55 212 0 30-29 31-85 3-30-14-56-26-59-26-14 0-4 26 28 74 18 28 59 102 91 164 47 92 70 125 130 185 85 83 161 176 212 259 20 32 38 56 41 54 2-3-10-46-27-96zm90-43c-24-123-54-237-64-237-16 0-1 146 22 217 40 124 63 135 42 20zm2099-33c0-89-9-104-35-54-16 30-12 95 7 133 18 34 28 5 28-79zm-2430 67c0-19-39-76-47-68-6 7 28 87 38 87 5 0 9-8 9-19zm2794-48c8-49 8-253 0-320-4-31-12-53-19-53-18 0-76 86-82 123-7 45 66 287 86 287 5 0 11-17 15-37zm-476-91c2-19-4-50-13-69s-14-44-11-56c6-22-70-160-84-152-9 6-10 1 24 140 13 55 27 117 31 138 5 32 10 38 28 35 17-2 23-11 25-36zm72-92c0-12 13-26 31-35l30-16-6-72c-5-59-18-96-67-205-39-85-61-148-62-173 0-22-5-38-11-35-6 2-32 0-58-4s-50-3-53 1c-2 5 5 61 17 125 17 92 30 130 57 176 19 33 43 87 52 121 33 116 70 178 70 117zm-1533-82c11-13 26-39 33-60 12-31 11-43-4-82-10-25-22-83-26-129-5-45-17-130-28-189-17-97-24-115-83-215-35-59-102-159-148-222-77-104-86-112-95-92-6 14-5 62 3 139 20 199 27 232 80 387 49 144 58 186 45 219-10 27-32 18-39-16-9-46-47-149-52-144-2 2-1 36 3 75 5 59 13 81 45 130 21 33 62 79 90 103s71 60 96 81c24 20 48 37 52 37s17-10 28-22zm229-226c-24-77-48-156-51-176-4-20-11-36-15-36-5 0-12-15-15-32-13-61-100-212-116-202-5 3-9 25-9 48 0 33 15 75 59 167 32 68 78 167 101 219 70 162 83 186 87 168 2-9-16-79-41-156zm1414 98c0-5-4-10-10-10-5 0-10 5-10 10 0 6 5 10 10 10 6 0 10-4 10-10zm-1537-7c17-29-40-243-64-243-15 0-10 31 16 113 14 43 25 91 25 107 0 28 13 40 23 23zm207-32c0-11 16-72 35-136l35-116-34-167c-38-182-58-248-74-245-6 2-20-11-32-27-18-25-28-30-61-30-52 0-94 43-109 112-14 66-16 58 38 141 53 81 57 90 132 325 48 148 70 194 70 143zm-769-23c-21-54-90-195-105-213-16-19-16-18-10 20 12 82 25 114 65 164 43 54 64 66 50 29zm2068-108c1-51 6-91 13-98 9-9 8-24-1-66-11-51-15-55-59-74-51-22-72-19-49 6 8 10 18 28 22 42s16 42 26 63c22 42 14 47-25 16-14-11-30-19-35-17-7 2 39 133 81 228 10 24 11 24 19 5 4-11 8-58 8-105zm-922-17c24-36 7-72-69-153l-71-75 5 60c5 56 26 194 34 223 5 17 80-24 101-55zm-182 15c-4-13-9-70-11-128-7-162-11-169-46-80-35 90-32 124 14 186 36 47 54 57 43 22zm-869-66c-8-16-12-39-9-51 6-25-15-129-29-137-13-8-9 57 7 101 8 21 13 41 11 42-6 7-34-35-49-75-20-50-22-83-5-100 8-8 8-12 1-12-14 0-63 65-63 83 0 9 24 47 53 86 28 39 61 83 72 98 16 22 20 25 23 11 2-9-4-30-12-46zm-172-106c-41-93-64-128-64-96 0 13 70 170 88 199 33 50 21 0-24-103zm-87 22c-4-35-9-74-13-88s-8-54-9-90c-1-55-7-73-35-118-18-29-35-50-37-48-9 9 29 270 47 320 28 78 31 86 43 86 6 0 8-22 4-62zm1536 17c49-7 79-28 112-78 16-25 20-65 28-293 7-190 6-269-1-276-34-34-197-12-236 31-31 34-40 132-26 276 7 71 17 141 23 155 5 14 11 63 13 110s3 86 4 88c0 2 8 1 18-1 9-3 38-8 65-12zm-124-62c0-38-6-85-12-107l-12-39-65-1-66-2 37 56c20 30 42 73 48 95 7 22 14 46 16 53 3 6 16 12 30 12 24 0 25-2 24-67zm-104 15c-4-13-20-43-36-68s-38-64-49-88c-24-53-80-135-87-128-3 2 11 38 31 78 21 41 32 74 27 76-15 5 3 36 56 100 47 55 69 67 58 30zm735-7c0-12-89-101-101-101s-1 69 13 87c5 6 24 14 41 16 18 2 35 5 40 5 4 1 7-2 7-7zm-168-22c18-9 19-17 14-57-5-41-16-57-81-126-53-56-75-74-75-60 0 10 7 27 15 38 10 13 11 23 3 35-14 23 34 133 70 162 29 22 27 22 54 8zm-829-103c-4-15-7-16-14-5-11 17-12 73-2 83s24-54 16-78zm-1401 19c-2-14-8-28-13-31-10-6-12 39-2 49 13 14 20 6 15-18zm244-27c-4-18-11-75-16-126-6-52-14-101-20-110-13-22-13-7 0 81 6 42 7 75 1 86-7 12-4 30 9 59 23 50 35 55 26 10zm1234 6c0-8-4-14-10-14-5 0-10 9-10 21 0 11 5 17 10 14 6-3 10-13 10-21zm-112-39c-3-25-2-48 3-51 17-10 9-40-16-64-34-32-41-20-21 39 9 27 16 59 16 70 0 22 10 51 17 51 3 0 3-20 1-45zm-441-147c-92-124-247-261-247-218 0 5 46 71 103 147s117 161 133 190l28 52 19-49 18-49zm791 120c23-23 10-182-29-333-37-148-40-158-48-149-23 25-30 75-17 124 7 28 9 53 5 56-5 3-24 2-43-1l-34-7-7 59c-3 32-8 76-11 98-4 36 0 47 33 89 53 69 119 96 151 64zm-273-100c0-101 1-103 22-101 17 2 24-4 29-25 4-15 15-46 25-70l18-42-87-73c-48-39-112-89-142-109-70-48-249-118-319-125l-54-6 6 44c4 24 27 92 52 151 51 121 57 169 23 192-12 9-26 16-30 16s-60-65-124-146c-110-137-157-184-171-171-12 13 9 57 50 103 69 76 211 269 233 314 23 49 41 51 50 5 8-43 46-82 95-97 57-17 113 3 170 61 25 25 60 54 78 63 22 12 39 34 54 68 12 27 22 50 22 50s0-46 0-102zm695-110c-17-105-30-149-40-143-26 16-2 172 32 212 19 23 21 7 8-69zm-1710-112c-21-53-84-126-96-113-10 10 12 53 64 126 51 73 65 67 32-13zm170-48c0-28-4-38-16-38-11 0-14 5-10 16 3 9 6 32 6 52 0 28 3 33 10 22 5-8 10-32 10-52zm1198-36c44-32 137-55 189-47l46 7-6-46c-4-25-18-63-31-85-30-47-51-64-41-32 3 11 2 21-3 21-13 0-78-73-96-108-16-32-34-42-71-42-27 0-76 70-96 137-11 38-9 56 17 169l29 126 18-40c9-23 30-50 45-60zm-194 36c3-16 2-28-3-28-11 0-22 40-15 52 8 12 10 9 18-24zm380-295c-10-42-41-100-57-106-14-5-67 2-67 10 0 21 105 123 127 123 2 0 0-12-3-27zm-274-83c8-5 11-12 8-16-10-9-38 3-38 16 0 12 10 13 30 0z"/><path d="m4287 5463c-4-3-7-31-7-62-1-144-39-289-82-312-14-7-17-14-10-21 14-14 46 6 70 44 33 54 52 136 59 251 5 91 4 107-9 107-8 0-18-3-21-7z"/><path d="m4165 5010c-3-6 8-18 26-28 43-23 171-134 296-258 72-71 110-117 128-155 13-30 25-60 25-66 0-7 17-21 38-32 20-11 82-54 136-95 101-76 304-188 365-201 63-13 28 18-95 85-149 82-203 119-279 192-33 32-67 58-75 58-27 0-57 28-88 82-52 89-334 363-419 407-48 24-50 24-58 11z"/><path d="m4640 4400c-12-8-11-12 7-32 16-17 19-28 13-39-7-12-2-25 21-50 17-19 50-62 74-96 76-108 229-220 339-249 63-17 185-18 238-2 43 13 128 82 128 104s-14 17-44-17c-70-78-240-90-380-26-69 32-196 136-242 198-20 27-34 52-31 55s23-4 45-15 75-34 116-51c42-16 103-44 136-60 62-31 105-39 98-17-8 23-122 94-264 166-78 38-162 86-188 106-53 40-47 38-66 25z"/><path d="m4150 3815c0-21 138-185 244-290 72-72 109-99 176-133 47-23 107-45 134-49 63-8 55 9-13 32-51 16-163 83-176 105-4 6 34-9 84-34 90-46 225-96 256-96 38 0 3 26-81 59-198 80-346 173-445 279-111 120-179 168-179 127z"/><path d="m2445 3299c-11-17 1-21 15-4 8 9 8 15 2 15s-14-5-17-11z"/><path d="m5127 1712c-40-41-45-52-23-52 13 0 49 40 70 78 14 25-11 11-47-26z"/></g></svg>